<svg xmlns="http://www.w3.org/2000/svg" width="807.345" height="60.629" viewBox="0 0 807.345 60.629"><g fill="#1A2312"><path d="M23.131 37.659l-1.008-.936c-.72.576-1.944 1.44-.576 3.168-.576.864-1.152 1.944-1.728 3.096-.648.288-1.224.72-1.728 1.224l.576 1.44-.288.504-.864-1.152c-1.152 1.584-1.944 3.816-2.304 5.977l1.368.648c-.288 1.152-.432 2.304-.504 3.24-.576.288-1.512.432-2.232.432-2.376 0-4.176-.864-5.329-1.872-.072-.72-.504-1.008-1.008-1.008-.576-.72-.792-1.296-.72-1.512 1.152-6.049 5.761-12.745 8.713-21.026l-.504-.432c-2.232 0-4.033-.432-5.977-1.368-.288.432-.72.576-1.296 0l-4.752-4.68h-.865c-4.393-6.408-1.152-13.897 2.808-20.522l1.008.432c.216-.647.648-1.152 1.081-1.152.432 0 4.032 1.512 5.833 2.304l1.152 2.016c-.648 4.104-3.24 6.121-3.672 10.297l-1.08.864c-.504 3.024-.216 4.825 1.512 7.057 4.824.432 8.569-1.8 10.729-4.824l7.633-10.729.576.936 2.88-4.176c.504-.72 1.152-.72 1.8-.216 1.872-1.512 3.456-1.656 4.752-1.008-.072.864.288 1.224 1.512 1.368.792 1.08 1.368 2.592 1.656 4.248-.72 1.8-1.872 3.528-3.384 5.257-2.808-.432-3.096.864-4.032 2.808l1.008.504c-2.809 2.952-5.617 5.833-6.553 8.569l-1.008-.936c-.072 2.88-2.16 4.752-3.24 6.409-.504.792-.36 1.8-.504 2.664l-.72-.504c.072-.504.072-.937-.288-1.224-.792 1.368-1.224 1.944.072 3.312l-.505.503zm-8.065 14.042l-.216 1.224.576.288.432-1.152-.792-.36zm1.656-.648c-.936-.648-.288-2.521.936-2.953l.072.072-1.008 2.881zm5.905-10.081c-.216.432-.648.792-1.368.504l.648-1.152.72.648zm13.825-24.051c.36-.36 1.008-1.152 1.873-.72-.432.504-.937 1.08-1.44 1.584l-.433-.864zM71.011 32.115c-.576 1.224-.36 4.393-1.872 5.833 1.008.576.432 2.376-.504 3.24.432 1.08.72 1.873-.792 3.889-.072.288.648-.072.792-.216-.144 2.448-.72 4.393-1.44 6.553-2.232 0-4.248-2.16-5.4-1.728.072-1.44-.144-2.016-1.152-2.016l.072-1.008c.36 0 .648-.216.72-.72-.36 0-.648-.216-.648-.72.144-1.656 1.008-3.745 1.44-5.905.504 0 .504.936.432 2.016.504 0 1.296-2.952 1.44-4.608l-.864-.36c-.072 1.152-.072 2.736-.937 2.376.216-1.008.432-3.528.648-4.392l1.224 1.512c-.072-.864.288-1.08.144-2.16-4.104-.144-14.978 5.688-18.218 7.92l-.36.936.288.864c-1.224 2.52-2.304 5.473-3.457 6.984l-4.536-1.944c-.216-2.232-3.312-3.168-2.521-5.041h-1.15c1.584-10.873 13.609-22.538 20.377-31.611 3.384-4.464 6.769-7.489 9.577-9.721.504-.432 2.52.288 2.664-1.08.936.288 2.952 1.152 4.032 2.016l-1.296.432c-.072 1.224 1.728-.144 2.088.144 2.665 2.304 1.152 6.192 2.521 8.281.072.36-.072 6.552-1.152 7.201.144.144.216.144.432.288-.432 1.584-1.008 3.672-1.152 5.688-.072.864 2.664 3.312 2.448 6.481-1.296.144-2.664.432-3.888.576zm-22.826 5.76c-.36.504-.504.792-.792 1.296l5.473-2.88c-.937-.72-3.313.864-4.681 1.584zm3.096-3.024c-.576.216-1.008.288-1.512.504l-.864 1.224c.288-.144 1.944-.72 2.376-1.728zm17.57-24.626c-1.368.072-4.68 4.104-7.776 8.208l-.36-.36c.216-.576.432-1.008.144-1.296-1.152 1.296-1.656 1.944-1.008 3.312-1.081 1.44-2.088 2.736-3.024 3.888-1.296 1.656-3.24 4.752-4.896 7.129 1.44-.864 2.52-2.376 5.4-3.601 2.521-1.08 4.032-1.368 6.625-2.088.216-1.872.936-3.24 1.224-4.249l1.224 1.08c.864-2.232 1.872-8.064 2.665-11.305l-.218-.718zm-12.601 24.338v-.072c-1.584.072-2.232.216-2.52 1.368.648-.36 1.728-.792 2.52-1.296zm6.336 7.273l-.288.936h.432l.288-1.152-.432.216zm2.232-17.354c-.288.864.216.864.72.792l.072-.792h-.792zm.648-1.152l-.288-.072-.288.792h.648l-.072-.72zm2.089-8.856h-.648l.576-1.944.648-.288-.576 2.232zM112.05 19.37c-3.097 1.944-1.944 2.88-5.617 5.041-1.08-1.512-3.168-.288-5.329 1.728 6.841 6.265 14.401 16.49 21.386 16.49 3.384 0 6.984-1.008 8.568-1.44.792.216 1.944 1.08 2.521 1.8-1.368.36-2.665.72-4.032 1.224l.144.144c.936 0 2.376.144 1.944.432-.72.576-3.456 2.088-6.121 3.024-.576.216.288.576.648.504 2.952-1.008 5.832-3.096 8.064-4.608.288.288.576.648.72.936-3.816 3.528-10.657 7.128-16.058 7.128-2.736-.936-5.833-2.232-7.705-4.104-3.528-3.457-13.177-17.209-17.498-19.442-1.872 2.592-4.824 8.353-5.833 11.161-.432.936.936 2.808.576 4.176-.432 1.584-2.376 2.736-3.96 4.32-1.368 0-3.24-1.152-3.816-2.664l-1.08-2.953c1.728-1.152-.648-.504-.648-1.872 0-3.744 11.809-29.667 18.866-40.251 5.904 0 3.96 5.041 5.041 7.273 2.232-.937 5.112-2.088 7.632-2.088 1.584 0 2.809.144 4.104.504l-.504 1.152c1.008.288 2.16.288 2.16-.648l1.368.576c-.072.36-.36.792-.576 1.008.576.432 1.224.432 1.368-.36 1.44 1.368 2.016 2.376 2.016 4.033 0 .864-.36 2.016-.936 2.52-1.944 1.728-3.96 3.745-6.625 6.049l-.788-.793zm-23.114 14.473l-2.088 3.816.36.864 2.088-4.104-.36-.576zm14.689-7.992l-.432-.648c.792-.576 2.016-1.008 2.376-.288l-1.944.936zm7.345-19.371l2.304.36.36-.504c-.792-.287-2.16-.143-2.664.144zm10.368 42.413c-1.008-.288-1.728.432-.072.936 1.368-.216 3.024-.72 4.032-1.08v-.072c-.36 0-.504-.36-.72-.504l-3.24.72zM163.673 31.683c.36.72-.144 1.512-.936 1.512l-.504-.936c-.576.144-1.008.432-.576 1.224-.792 0-2.088.648-2.088 1.44 0 1.08-1.224.72-2.088.936-.792.792-1.44 1.728-2.304 2.88l-.792-.72c-1.872 1.152-.864 1.944-2.808 2.88-1.152.576-2.521.504-3.816.792-.216.216.648.504.576.792l-1.296.432-2.016-1.224c-1.152.72-.288 2.376-1.728 2.88-1.728.576-3.096 1.08-5.112 1.729-1.224-1.224-2.665-.792-3.672 0-2.521-1.584-5.617-3.96-7.489-5.544-1.728-1.368-2.304-4.896-2.304-8.353 0-17.498 21.818-28.802 27.218-28.802 2.088 0 3.096 1.296 5.329 3.024 0 3.312 3.528 5.977 6.48 7.993 2.808 1.873 3.744 5.473 3.744 9.361-.002 2.375-1.225 5.616-3.818 7.704zm-7.776-14.762c-.216-.648-.36-1.08-.648-.792s-.576.432-.792.432c-.504 0-.792-.576-.864-.576-3.816 0-10.441 4.393-13.465 9.145-3.456 1.656-5.833 5.76-7.417 10.729 1.656-.144 3.816-.288 5.112-.792l12.961-5.401c1.44-.576 4.536-2.088 5.904-3.816l3.24-4.249-4.031-4.68zm-17.858 8.065c-1.08-.648-2.376.36-2.521 1.152 0 .432.216.792.864.864l1.657-2.016zm.288 20.018c-.288-.432-.792-.792-1.296-.792-.288.072-.576.144-.864.432l2.16.36zm9.433-5.041c0 .216-.288.72-.144.864.288.216.864 0 1.224-.144 0-.503-.36-.72-1.08-.72zm3.888-2.088c-1.296.648-1.8 1.008-1.728 1.8l2.088-1.08-.36-.72zm2.016-1.728l-1.152 1.224.288.792 1.44-.864c-.216-.216-.36-1.007-.576-1.152zM218.393 5.113c.792-.504 2.232-.864 3.745-.937 2.592-.072 4.608.288 5.833 1.152l-1.44 1.008.144.288c.504 0 1.872-.432 2.304-.72l2.016 2.16c-3.744 1.728-10.441 6.696-14.113 11.737-.432.576-.72-.288-1.152 0-.144 2.592-1.656 3.96-3.384 6.697-.36.648-.216 1.584-.648 2.592 0 .432-1.08.864-1.296 1.512-1.8 5.545-4.248 11.305-6.552 17.21l-3.24-1.512-.432 1.008c-4.608-1.224-5.041-3.024-5.688-7.849-.216-1.872.36-5.112-.144-6.696-1.728-5.041-.072-7.201-.504-10.873l-.36-2.808c-2.232.72-4.752 2.88-6.625 6.264l.216 1.152c-3.6 6.769-6.84 16.129-10.081 20.45h-2.016c-2.088 0-3.24-4.824-4.104-5.256l-.432-3.168c-.36-2.232.288-3.024.792-4.393 5.113-12.385 13.321-19.874 19.01-25.706 2.16.792 8.065 4.464 9.073 7.129.864 2.16 1.728 6.696 2.448 9.648 4.896-8.497 12.097-19.082 13.681-19.658l1.512-.216c-4.464 4.393-7.633 9.577-9.361 12.097-.648 1.08-.936 1.512-.792 1.584l.432.288c2.085-3.239 6.91-10.08 11.158-14.184zm-28.514 5.04l-1.584 1.656c.864.72 1.656-.72 2.16-1.224l-.576-.432zm21.458 22.898l-.648-.432c.072-1.008.144-2.376 1.008-2.017l-.36 2.449zm5.688-16.705c-.576.864-1.728 2.376-1.008 2.736l1.512-2.305c.144-.215-.36-.648-.504-.431zm-.36-7.633l1.224-1.584-.576-.288c-.36.288-.792.792-1.224 1.512.072.144.288.432.576.36zm2.233 5.112l-1.44 1.872c.432-.072.576.072.648.36l1.296-1.872c.143-.143-.145-.792-.504-.36zm5.472-5.976l.144.648c.72-.504 1.368-.576 1.224-1.656l-1.368 1.008zM273.543 23.69l-.576-.504c-4.896 2.88-10.225 6.769-12.457 5.329-.864 1.44-2.521 5.688-2.88 5.688s-.144-1.872-.936-.504c-.792 1.44-2.448 4.32-2.304 6.408 0 .432 1.152-.288 1.008.144l-3.24 9.433c-.216.72-.576 2.376-.648 3.312-.648 0-4.608-1.44-5.616-2.88-1.152-1.729-1.512-4.249-1.512-5.689 2.304-7.128 7.705-19.729 11.593-28.082-1.08-.792-2.16-1.8-2.736-2.521.504-.648.936-1.656 1.08-2.52l-1.8-.432c.504-.72 1.368-1.224 1.944-1.584v-1.151c6.841.432 6.121-7.993 8.857-7.993.72 0 1.08.144 1.584.288 1.08.36 2.016.936 3.24 1.08.576 1.44 1.296 2.736 1.584 4.32 2.232.072 4.464.144 7.057.576 3.816.576 6.12 2.016 6.12 6.121-.002 5.041-3.818 7.273-9.362 11.161zm-17.642 15.481c-.288 0-.72.432-.936.216.216-1.008 1.008-2.809 1.44-2.953 1.009-.431-.144 1.801-.504 2.737zm10.729-14.617h-.937c-.936 0-1.728 1.008-1.872 2.016 1.728-.504 3.745-1.512 5.256-2.376-.863-.936-1.295.36-2.447.36zm2.161-1.152c.576 0 .648.72 1.224.36l1.224-.72c-.36-.36-1.873-.504-2.448.36zm3.096-1.44c-.288.216.288.72 1.008.216 1.44-.864 4.033-2.088 3.457-2.88l-4.465 2.664zm5.76-3.6c-.36.216-.72.288-.864.72-.216.576 1.584.144 1.584-.648 0-.216-.36-.288-.72-.072zM319.551 11.953c-6.553 2.952-13.249 3.168-19.586 4.968-.792 1.296-1.8 2.953-3.024 4.896 2.88-.288 8.856-2.736 10.945-2.736s2.736.72 4.249 3.312c-.288.792.072 1.512.792 1.872l-.504 1.584c-4.393.72-15.122 2.448-18.722 4.032-1.872.792-3.528 8.713-3.601 10.369 2.232 1.656 5.617.936 7.705.432l.432.72c.504 0 1.152-.432 1.152-.864 1.08-.144 1.44 1.584 2.448 1.296 4.68-1.296 10.225-3.168 13.825-4.32.216-.072.504-.144.576.072.144.36-.936.864-1.512 1.152l-4.896 1.8c.432.288 1.224.792 1.728 1.08.216.072.072.216-.144.288-3.6 1.224-8.064 2.448-12.097 3.457 1.08.504 2.665.504 4.033.144 2.88-.792 6.84-2.161 10.369-3.384.216-.072.72-.288.36.432-.432.72-1.008 1.224-2.016 1.584-4.68 1.8-10.729 3.96-15.121 3.96-8.425 0-14.401-3.816-14.113-14.329.144-5.329 4.536-11.881 9.793-22.898-.36-1.8-.288-3.528 1.008-5.473 3.601.432 5.688-5.112 8.209-5.112 1.368 0 5.184 1.08 6.121 1.368.072 1.584-.288 3.24-1.296 5.185 1.224.288 4.681.648 6.265.648l.648 1.368c.36 0 1.008-.432 1.8-.432s2.52.72 3.528.864c.144 0 .288.144.144.288-2.88 2.592-4.896 1.008-4.393 3.168 2.16-.864 3.96-1.368 5.977-2.304.288-.144.72-.648.792-.216.142.721-1.154 1.153-1.874 1.729zm-30.459 25.13c-.288 1.296-.36 2.232.216 2.664l.36-1.944-.576-.72zm1.152-4.104l-.792 2.664.504.648 1.008-3.384-.72.072zm.144-.504h.072c.432-.576 1.008-1.152 1.296-1.873-.936-.072-1.224.36-1.368 1.081v.792zm4.105-10.441l.936-.144.72-1.656c-.504 0-1.44 1.008-1.656 1.8zm3.312-4.825l-1.224 2.016.937-.216 1.224-2.016-.937.216zm9.361 21.603c-2.016 1.512-4.536 2.52-5.4 1.152 3.312-.72 6.625-1.8 9.289-2.88.288-.144.36.072.216.288-.865 1.007-2.737 1.511-4.105 1.44zm6.768-29.091l.216.864 1.296-.576c-.071-.36-1.08-.432-1.512-.288zM353.246 19.37c-3.096 1.944-1.944 2.88-5.617 5.041-1.08-1.512-3.168-.288-5.329 1.728 6.841 6.265 14.401 16.49 21.386 16.49 3.384 0 6.984-1.008 8.568-1.44.792.216 1.944 1.08 2.521 1.8-1.368.36-2.665.72-4.032 1.224l.144.144c.937 0 2.376.144 1.944.432-.72.576-3.456 2.088-6.121 3.024-.576.216.288.576.648.504 2.952-1.008 5.833-3.096 8.064-4.608.288.288.576.648.72.936-3.816 3.528-10.657 7.128-16.058 7.128-2.736-.936-5.833-2.232-7.705-4.104-3.528-3.457-13.177-17.209-17.498-19.442-1.872 2.592-4.824 8.353-5.833 11.161-.432.936.936 2.808.576 4.176-.432 1.584-2.376 2.736-3.96 4.32-1.368 0-3.24-1.152-3.816-2.664l-1.08-2.953c1.729-1.152-.648-.504-.648-1.872 0-3.744 11.809-29.667 18.866-40.251 5.904 0 3.96 5.041 5.041 7.273 2.232-.937 5.112-2.088 7.632-2.088 1.584 0 2.809.144 4.104.504l-.504 1.152c1.008.288 2.16.288 2.16-.648l1.368.576c-.072.36-.36.792-.576 1.008.576.432 1.224.432 1.368-.36 1.44 1.368 2.016 2.376 2.016 4.033 0 .864-.36 2.016-.936 2.52-1.944 1.728-3.96 3.745-6.625 6.049l-.788-.793zm-23.115 14.473l-2.088 3.816.36.864 2.088-4.104-.36-.576zm14.69-7.992l-.432-.648c.792-.576 2.016-1.008 2.376-.288l-1.944.936zm7.345-19.371l2.304.36.36-.504c-.792-.287-2.16-.143-2.664.144zm10.368 42.413c-1.008-.288-1.728.432-.072.936 1.368-.216 3.024-.72 4.032-1.08v-.072c-.36 0-.504-.36-.72-.504l-3.24.72zM397.381 4.033c2.592.648 3.888 2.952 3.672 5.688.36.288.504.648.504 1.008 0 1.512-2.448 3.528-5.185 4.104-1.512-1.944.864-2.016.144-2.808-7.272 0-10.945 1.44-17.209 5.904v1.08l3.024 2.16c3.096 2.16 6.121 3.168 8.281 5.544l.792-.504c2.088 2.232 3.312 4.968 3.168 6.84l-.432 5.761-1.224-.288c-2.088 2.88-6.265 5.473-10.513 7.345-2.232-.936-3.456-.576-3.384 1.368-3.456 1.296-6.552 1.944-7.849 1.944-1.008 0-2.736-1.152-4.464-2.808-2.88-.576-3.528-2.304-3.168-3.6-.937-1.296-1.584-2.521-1.584-3.312 0-1.8 1.224-2.88 2.376-3.744 1.224 1.008 3.096 3.528 4.392 3.528 3.384 0 10.081-1.944 14.689-5.977v-.72c-1.8-1.728-3.24-4.896-4.537-4.032-1.944-2.592-2.808-3.672-4.104-2.736-1.008-.864-2.953-2.592-3.312-4.608-.432-2.304-1.296-4.968-1.224-6.48.432-5.905 12.097-11.809 21.242-11.809 1.8 0 4.177.072 5.977.288l-.072.864zm-19.226 41.907l-2.521 1.08.36.504 2.16-.72v-.864zm6.481-32.331c-2.592.792-5.256 1.872-5.329 3.024l5.329-2.953v-.071zm14.041 1.152l1.8-1.224c0 .864-.216.937-1.152 1.729l-.648-.505zM441.949 31.683c.359.72-.145 1.512-.937 1.512l-.504-.936c-.576.144-1.008.432-.576 1.224-.792 0-2.088.648-2.088 1.44 0 1.08-1.225.72-2.088.936-.792.792-1.44 1.728-2.305 2.88l-.792-.72c-1.872 1.152-.864 1.944-2.809 2.88-1.151.576-2.52.504-3.815.792-.217.216.647.504.575.792l-1.296.432-2.016-1.224c-1.152.72-.288 2.376-1.729 2.88-1.729.576-3.097 1.08-5.112 1.729-1.225-1.224-2.664-.792-3.673 0-2.52-1.584-5.616-3.96-7.488-5.544-1.728-1.368-2.304-4.896-2.304-8.353 0-17.498 21.818-28.802 27.218-28.802 2.088 0 3.097 1.296 5.328 3.024 0 3.312 3.528 5.977 6.481 7.993 2.808 1.873 3.744 5.473 3.744 9.361.003 2.375-1.222 5.616-3.814 7.704zm-7.776-14.762c-.217-.648-.36-1.08-.648-.792s-.576.432-.792.432c-.504 0-.792-.576-.864-.576-3.816 0-10.44 4.393-13.465 9.145-3.457 1.656-5.833 5.76-7.417 10.729 1.656-.144 3.816-.288 5.112-.792l12.961-5.401c1.44-.576 4.537-2.088 5.905-3.816l3.24-4.249-4.032-4.68zm-17.858 8.065c-1.08-.648-2.376.36-2.52 1.152 0 .432.216.792.863.864l1.657-2.016zm.288 20.018c-.288-.432-.792-.792-1.296-.792-.288.072-.576.144-.864.432l2.16.36zm9.433-5.041c0 .216-.288.72-.145.864.288.216.864 0 1.225-.144 0-.503-.36-.72-1.08-.72zm3.888-2.088c-1.296.648-1.8 1.008-1.728 1.8l2.088-1.08-.36-.72zm2.017-1.728l-1.152 1.224.288.792 1.44-.864c-.217-.216-.361-1.007-.576-1.152zM496.669 5.113c.792-.504 2.232-.864 3.744-.937 2.593-.072 4.608.288 5.833 1.152l-1.44 1.008.145.288c.504 0 1.872-.432 2.304-.72l2.017 2.16c-3.745 1.728-10.441 6.696-14.113 11.737-.433.576-.721-.288-1.152 0-.144 2.592-1.656 3.96-3.385 6.697-.359.648-.216 1.584-.647 2.592 0 .432-1.08.864-1.296 1.512-1.801 5.545-4.249 11.305-6.553 17.21l-3.24-1.512-.433 1.008c-4.608-1.224-5.04-3.024-5.688-7.849-.216-1.872.36-5.112-.144-6.696-1.729-5.041-.072-7.201-.504-10.873l-.36-2.808c-2.232.72-4.752 2.88-6.624 6.264l.216 1.152c-3.601 6.769-6.841 16.129-10.081 20.45h-2.017c-2.088 0-3.24-4.824-4.104-5.256l-.432-3.168c-.36-2.232.288-3.024.792-4.393 5.112-12.385 13.321-19.874 19.01-25.706 2.16.792 8.064 4.464 9.073 7.129.863 2.16 1.728 6.696 2.448 9.648 4.896-8.497 12.097-19.082 13.681-19.658l1.512-.216c-4.464 4.393-7.632 9.577-9.36 12.097-.648 1.08-.937 1.512-.792 1.584l.432.288c2.086-3.239 6.91-10.08 11.158-14.184zm-28.515 5.04l-1.584 1.656c.864.72 1.656-.72 2.16-1.224l-.576-.432zm21.458 22.898l-.647-.432c.071-1.008.144-2.376 1.008-2.017l-.361 2.449zm5.689-16.705c-.576.864-1.728 2.376-1.008 2.736l1.512-2.305c.144-.215-.36-.648-.504-.431zm-.36-7.633l1.224-1.584-.576-.288c-.36.288-.792.792-1.224 1.512.072.144.288.432.576.36zm2.232 5.112l-1.439 1.872c.432-.072.575.072.647.36l1.296-1.872c.144-.143-.144-.792-.504-.36zm5.473-5.976l.145.648c.72-.504 1.368-.576 1.224-1.656l-1.369 1.008zM536.268 32.115c-.576 1.224-.36 4.393-1.872 5.833 1.008.576.432 2.376-.504 3.24.432 1.08.72 1.873-.792 3.889-.072.288.647-.072.792-.216-.145 2.448-.72 4.393-1.44 6.553-2.232 0-4.248-2.16-5.4-1.728.072-1.44-.144-2.016-1.152-2.016l.072-1.008c.36 0 .648-.216.72-.72-.359 0-.647-.216-.647-.72.144-1.656 1.008-3.745 1.439-5.905.505 0 .505.936.433 2.016.504 0 1.296-2.952 1.44-4.608l-.864-.36c-.072 1.152-.072 2.736-.937 2.376.216-1.008.433-3.528.648-4.392l1.224 1.512c-.071-.864.288-1.08.145-2.16-4.104-.144-14.978 5.688-18.218 7.92l-.36.936.288.864c-1.224 2.52-2.304 5.473-3.456 6.984l-4.536-1.944c-.216-2.232-3.312-3.168-2.521-5.041h-1.152c1.584-10.873 13.609-22.538 20.378-31.611 3.385-4.464 6.769-7.489 9.577-9.721.504-.432 2.521.288 2.664-1.08.937.288 2.952 1.152 4.032 2.016l-1.296.432c-.072 1.224 1.728-.144 2.088.144 2.664 2.304 1.152 6.192 2.521 8.281.072.36-.072 6.552-1.152 7.201.145.144.216.144.433.288-.433 1.584-1.009 3.672-1.152 5.688-.072.864 2.664 3.312 2.448 6.481-1.299.144-2.667.432-3.891.576zm-22.827 5.76c-.359.504-.504.792-.792 1.296l5.473-2.88c-.936-.72-3.312.864-4.681 1.584zm3.097-3.024c-.576.216-1.008.288-1.513.504l-.863 1.224c.288-.144 1.944-.72 2.376-1.728zm17.569-24.626c-1.368.072-4.681 4.104-7.776 8.208l-.36-.36c.216-.576.432-1.008.145-1.296-1.152 1.296-1.656 1.944-1.009 3.312-1.08 1.44-2.088 2.736-3.024 3.888-1.296 1.656-3.24 4.752-4.896 7.129 1.44-.864 2.521-2.376 5.401-3.601 2.52-1.08 4.032-1.368 6.624-2.088.216-1.872.937-3.24 1.225-4.249l1.224 1.08c.864-2.232 1.872-8.064 2.664-11.305l-.218-.718zm-12.6 24.338v-.072c-1.585.072-2.232.216-2.521 1.368.648-.36 1.728-.792 2.521-1.296zm6.336 7.273l-.288.936h.433l.288-1.152-.433.216zm2.232-17.354c-.288.864.216.864.72.792l.072-.792h-.792zm.649-1.152l-.288-.072-.288.792h.647l-.071-.72zm2.088-8.856h-.648l.576-1.944.648-.288-.576 2.232zM583.427 32.619c-1.512 1.008-2.664 1.296-3.384 1.224-.864 0-1.08-.144-1.225-.36-1.296 1.296.792 2.376 5.688.432.36-.072.937.144.648.288-1.368.648-4.393 2.232-5.4 2.232-1.656 0-2.881.432-4.393.937-4.536 1.584-11.737 4.32-16.922 6.408-.936.36-2.448 1.8-3.312 1.872-.864.144-2.665.288-3.601.288-.576 0-1.008-.36-1.225-.792h-1.655c-1.08-1.08-2.305-3.312-3.24-3.312h-.864c1.224-12.673 14.185-32.115 20.737-40.54v-1.152c4.032 0 6.121 3.24 6.121 6.697 0 .864-3.673 9.073-4.969 11.449-.864 1.512-3.168 3.672-4.393 5.401-.647.936-1.08 2.808-1.656 3.816-.792 1.44-3.24 2.665-2.376 4.752 4.896-1.512 5.833-1.656 6.408-1.8.792-.216 1.729-.432 2.665-.432 1.151 0 2.231.36 2.808 1.368.36-.36 3.24-1.512 3.601-1.512l2.088.36c.937 0 4.681-1.224 7.129-1.944.072.144.36.288.864.36v.072c-2.232.72-5.185 1.44-7.057 2.592l.72.432c2.232-.792 6.769-2.808 9.289-3.384.864.288 1.872.936 1.944 1.08 1.08-.432 2.952-1.44 3.024-.936.219 1.007-4.389 3.168-8.062 4.104zm-26.21-4.896c-.504 1.296-1.368 2.52-.432 2.952l1.296-2.736-.864-.216zm18.865 7.56c-3.816.72-11.809 3.672-16.777 6.121l.072.288 17.857-5.905-1.152-.504zm-14.688-13.105c-.721 0-1.009.864-1.009 1.296h1.009v-1.296zm9.216 10.369l1.584-.864c-.36-.216-1.152-.288-2.017.288l.433.576zm13.826-4.248c-.217.072-.793-.288-.576-.36l1.439-.432c.792-.216.721.216.36.36l-1.223.432zm1.872 5.4c-.505.216-.792.072-1.009-.216v-.072c4.249-1.872 4.753-2.16 5.329-1.728l-4.32 2.016zm2.736-5.184c-.36-.288-.721-.504-1.08-.648.287-.216 2.808-1.08 2.808-.72 0 .432-1.224 1.008-1.728 1.368zM644.698 15.193c-1.225 2.521-1.944 4.104-2.664 6.192-2.16 1.729-3.673 4.969-3.673 8.281-.432.36-.936 0-1.224-.432-.648-1.008-2.305-.072-1.729 2.16l1.44-.36c.144.36-.145 1.368-.504 2.232l-1.585-1.152-.647.648.504.504c-.288 1.224-1.656 4.824 0 4.68-.288.864-.72 1.872-1.584 1.008-.721.936-.504 1.656.432 1.584-.071 1.152-1.224.792-1.944.216l-.936.864.576.288c-.288.792-.433 1.656-.072 2.736.504-1.08.937-2.16 1.729-2.376-2.593 6.697-6.769 13.394-11.882 18.362-10.656 0-15.409-10.081-15.409-18.938 0-4.537.792-9.073 3.816-13.321 4.249 0 7.272 3.6 7.272 10.369l-2.52 1.944c-1.08 2.088-1.801 4.681-1.801 6.48 0 3.024.937 4.896 3.312 4.896 2.809 0 5.112-5.328 7.993-10.153 4.68-10.585 6.984-26.282 15.409-37.299 1.512-1.944 3.096-4.32 4.248-4.32 1.225 0 2.448.936 3.889 1.944.864 1.8 1.656 5.041 1.656 6.696.003 2.523-2.878 3.891-4.102 6.267zm-23.186 41.836c1.009-.36 2.089-.937 3.169-2.304-1.44.288-3.385.504-3.385 1.512 0 .216.072.504.216.792zm1.297-.072l-1.009.72.216.72.793-.936v-.504zm2.303-4.393l.288.288-1.08 1.224.792.144 1.44-2.016c.432-.576.72-1.08.216-1.584l-1.656 1.944zm2.376-1.872l1.297-1.872c-.721-.072-1.513.072-2.017.864l.72 1.008zm4.321-12.961l.792.864c.36-.72.36-1.873.36-2.592l-1.152 1.728zm3.24-.864c-.792-.288.072-2.304.36-2.952l.504.432-.864 2.52zm5.041-15.985l1.08.216.864-2.232c-.576 0-1.368.72-1.944 2.016zM685.811 11.953c-6.553 2.952-13.25 3.168-19.586 4.968-.792 1.296-1.801 2.953-3.024 4.896 2.88-.288 8.856-2.736 10.945-2.736 2.088 0 2.735.72 4.248 3.312-.288.792.072 1.512.792 1.872l-.504 1.584c-4.393.72-15.121 2.448-18.722 4.032-1.872.792-3.528 8.713-3.601 10.369 2.232 1.656 5.616.936 7.705.432l.432.72c.504 0 1.152-.432 1.152-.864 1.08-.144 1.44 1.584 2.448 1.296 4.681-1.296 10.225-3.168 13.825-4.32.216-.072.504-.144.576.072.144.36-.937.864-1.513 1.152l-4.896 1.8c.433.288 1.225.792 1.729 1.08.216.072.072.216-.144.288-3.601 1.224-8.065 2.448-12.098 3.457 1.08.504 2.664.504 4.032.144 2.881-.792 6.841-2.161 10.369-3.384.216-.072.72-.288.36.432-.433.72-1.009 1.224-2.017 1.584-4.681 1.8-10.729 3.96-15.121 3.96-8.425 0-14.401-3.816-14.113-14.329.144-5.329 4.536-11.881 9.793-22.898-.36-1.8-.288-3.528 1.008-5.473 3.601.432 5.688-5.112 8.209-5.112 1.368 0 5.185 1.08 6.12 1.368.072 1.584-.288 3.24-1.296 5.185 1.225.288 4.681.648 6.265.648l.648 1.368c.359 0 1.008-.432 1.8-.432s2.521.72 3.528.864c.144 0 .288.144.144.288-2.88 2.592-4.896 1.008-4.392 3.168 2.16-.864 3.96-1.368 5.977-2.304.287-.144.72-.648.792-.216.145.721-1.151 1.153-1.87 1.729zm-30.459 25.13c-.288 1.296-.36 2.232.216 2.664l.36-1.944-.576-.72zm1.152-4.104l-.792 2.664.504.648 1.008-3.384-.72.072zm.144-.504h.072c.432-.576 1.008-1.152 1.296-1.873-.937-.072-1.224.36-1.368 1.081v.792zm4.104-10.441l.936-.144.721-1.656c-.505 0-1.441 1.008-1.657 1.8zm3.313-4.825l-1.225 2.016.937-.216 1.223-2.015-.935.215zm9.36 21.603c-2.016 1.512-4.536 2.52-5.4 1.152 3.312-.72 6.625-1.8 9.289-2.88.288-.144.36.072.216.288-.865 1.007-2.737 1.511-4.105 1.44zm6.768-29.091l.216.864 1.297-.576c-.072-.36-1.08-.432-1.513-.288zM718.929 4.033c2.592.648 3.889 2.952 3.672 5.688.36.288.505.648.505 1.008 0 1.512-2.448 3.528-5.185 4.104-1.513-1.944.863-2.016.144-2.808-7.272 0-10.944 1.44-17.209 5.904v1.08l3.023 2.16c3.097 2.16 6.121 3.168 8.281 5.544l.792-.504c2.088 2.232 3.312 4.968 3.168 6.84l-.432 5.761-1.225-.288c-2.088 2.88-6.264 5.473-10.513 7.345-2.232-.936-3.456-.576-3.384 1.368-3.457 1.296-6.553 1.944-7.849 1.944-1.009 0-2.736-1.152-4.465-2.808-2.88-.576-3.528-2.304-3.168-3.6-.937-1.296-1.584-2.521-1.584-3.312 0-1.8 1.224-2.88 2.376-3.744 1.224 1.008 3.096 3.528 4.393 3.528 3.384 0 10.08-1.944 14.688-5.977v-.72c-1.8-1.728-3.24-4.896-4.536-4.032-1.944-2.592-2.808-3.672-4.104-2.736-1.008-.864-2.952-2.592-3.312-4.608-.433-2.304-1.297-4.968-1.225-6.48.433-5.905 12.097-11.809 21.242-11.809 1.8 0 4.176.072 5.977.288l-.07.864zm-19.226 41.907l-2.521 1.08.36.504 2.16-.72v-.864zm6.481-32.331c-2.592.792-5.257 1.872-5.328 3.024l5.328-2.953v-.071zm14.041 1.152l1.801-1.224c0 .864-.217.937-1.152 1.729l-.649-.505zM770.698 15.122c-1.44-.144-3.456.936-1.729 2.088.504.288-.072 1.368-.936 1.296l-1.009-.504c-.936 1.729-2.088 4.033-1.151 4.104l-.793 1.512c-1.367-.072-1.512 1.872-5.976 7.345l.575.72c1.801-2.304 3.528-4.752 4.969-7.129.504.648.36 1.296.145 1.728-10.08 18.578-24.914 20.738-29.09 20.738-1.008 0-.145-.72-1.08-.72-1.008 0 .144.72-.792.72-2.017 0-2.952-1.944-3.961-3.168l-.792.36c-2.88-1.728-4.176-5.041-4.176-8.425 0-2.88.72-5.904 1.944-8.569 3.312-7.2 8.712-20.162 11.377-26.21.864-.72 1.585-1.008 2.232-1.008 1.584.072 3.816 5.905 4.393 7.417l1.008-.72v1.656c-2.088 3.816-5.112 10.081-6.984 14.185-.432-.72-.432-1.152-.072-1.944.721-.216-.287-1.008-.575-.576-1.729 2.52.071 3.816-.648 5.328-.288.648-.648 1.368-1.008 2.232-.648-.288-1.368.504-1.729 1.224.432.216.864 0 1.296-.288h.072c-.504 1.08-1.08 2.448-1.512 3.456-.288-.432-.36-1.008.144-2.088l-.432-.432c-.576 1.08-1.297 2.376-1.297 3.24 0 .504.288.792.937.864-.288.72-.576 1.44-.792 2.016 14.689 0 21.242-10.945 27.146-23.186.216-.648 1.368-.288 2.016-.72.648-.36.36-1.008-.792-.864 1.152-2.592 2.593-6.697 2.881-7.849.144-.648.575-.792 1.151-.792.433 0 .937.576 1.585 1.08.792.648 1.728 1.008 2.088 1.152.359.792.504 2.232.576 3.672.071 1.728.288 3.312 1.8 3.456l-1.009 3.603zm-30.386 29.378c-.937-1.656-3.528-1.08-2.809-.216.288.36.648.432 1.152.432s1.153-.144 1.657-.216zm-1.441-26.21c-.072.144-.216.432-.144.504l.936.576c.504-.72 1.729-3.312 1.009-4.032l-1.801 2.952zm6.553 24.05c-1.224.432-2.952.216-2.809 1.872 1.44-.288 2.881-.864 4.177-1.512-.216-.504-.864-.504-1.368-.36zm2.16-.864l.145.72c1.512-.72 4.104-2.376 5.328-3.384-1.729-.073-2.952 1.295-5.473 2.664zm10.873-9.865c-1.08 1.08-2.017 2.016-1.296 2.952l2.016-2.232-.72-.72zM803.168 4.033c2.592.648 3.889 2.952 3.672 5.688.36.288.505.648.505 1.008 0 1.512-2.448 3.528-5.185 4.104-1.513-1.944.863-2.016.144-2.808-7.272 0-10.944 1.44-17.209 5.904v1.08l3.023 2.16c3.097 2.16 6.121 3.168 8.281 5.544l.792-.504c2.088 2.232 3.312 4.968 3.168 6.84l-.432 5.761-1.225-.288c-2.088 2.88-6.264 5.473-10.513 7.345-2.232-.936-3.456-.576-3.384 1.368-3.457 1.296-6.553 1.944-7.849 1.944-1.009 0-2.736-1.152-4.465-2.808-2.88-.576-3.528-2.304-3.168-3.6-.937-1.296-1.584-2.521-1.584-3.312 0-1.8 1.224-2.88 2.376-3.744 1.224 1.008 3.096 3.528 4.393 3.528 3.384 0 10.08-1.944 14.688-5.977v-.72c-1.8-1.728-3.24-4.896-4.536-4.032-1.944-2.592-2.808-3.672-4.104-2.736-1.008-.864-2.952-2.592-3.312-4.608-.433-2.304-1.297-4.968-1.225-6.48.432-5.905 12.097-11.809 21.242-11.809 1.8 0 4.176.072 5.977.288l-.07.864zm-19.226 41.907l-2.521 1.08.36.504 2.16-.72v-.864zm6.481-32.331c-2.592.792-5.257 1.872-5.328 3.024l5.328-2.953v-.071zm14.041 1.152l1.801-1.224c0 .864-.217.937-1.152 1.729l-.649-.505z"/></g></svg>